<svg width="959" height="500" viewBox="0 0 959 500" fill="none" xmlns="http://www.w3.org/2000/svg">
    <g opacity="0.6" filter="url(#filter0_f_4758_75433)">
        <mask id="mask0_4758_75433" style="mask-type:alpha" maskUnits="userSpaceOnUse" x="60" y="182" width="1398" height="819">
            <path d="M898.458 184.542C866.336 186.784 834.555 190.64 803.695 195.577C788.265 198.045 772.755 200.659 757.309 203.498C717.089 210.752 676.893 219.161 637.006 229.07C523.817 257.064 283.716 338.321 185.176 399.708C173.713 406.846 162.501 414.218 151.386 421.928C129.31 437.244 107.566 454.36 90.7651 475.071C84.364 483.019 78.6092 491.516 73.9043 500.689C64.7362 518.6 60.6201 535.796 60.7004 552.277C60.7442 564.368 62.9668 575.956 67.0695 587.067C81.7898 627.53 115.616 669.178 159.218 695.247C200.752 720.075 246.495 731.655 280.726 740.178C294.749 743.675 313.822 744.747 327.836 746.719C418.126 759.523 507.744 745.256 598.524 755.291C702.888 766.871 800.113 815.157 878.18 884.464C934.598 934.549 987.652 986.76 1065.37 998.769C1071.76 999.748 1078.02 1000.27 1084.31 1000.24C1121.87 1000.35 1164.31 984.639 1195.6 959.225C1227.85 932.922 1259.51 896.886 1285.62 862.808C1313.89 826.032 1336.48 789.052 1351.29 762.677C1422.92 635.349 1473.11 557.994 1453.22 480.746C1435.79 413.125 1400.08 351.051 1343.63 302.564C1320.58 282.948 1295.93 266.054 1270.06 251.712C1159.44 190.395 1025.83 175.526 898.458 184.542Z" fill="url(#paint0_linear_4758_75433)"/>
        </mask>
        <g mask="url(#mask0_4758_75433)">
            <path d="M898.458 184.542C866.336 186.784 834.555 190.64 803.695 195.577C788.265 198.045 772.755 200.659 757.309 203.498C717.089 210.752 676.893 219.161 637.006 229.07C523.817 257.064 283.716 338.321 185.176 399.708C173.713 406.846 162.501 414.218 151.386 421.928C129.31 437.244 107.566 454.36 90.7651 475.071C84.364 483.019 78.6092 491.516 73.9043 500.689C64.7362 518.6 60.6201 535.796 60.7004 552.277C60.7442 564.368 62.9668 575.956 67.0695 587.067C81.7898 627.53 115.616 669.178 159.218 695.247C200.752 720.075 246.495 731.655 280.726 740.178C294.749 743.675 313.822 744.747 327.836 746.719C418.126 759.523 507.744 745.256 598.524 755.291C702.888 766.871 800.113 815.157 878.18 884.464C934.598 934.549 987.652 986.76 1065.37 998.769C1071.76 999.748 1078.02 1000.27 1084.31 1000.24C1121.87 1000.35 1164.31 984.639 1195.6 959.225C1227.85 932.922 1259.51 896.886 1285.62 862.808C1313.89 826.032 1336.48 789.052 1351.29 762.677C1422.92 635.349 1473.11 557.994 1453.22 480.746C1435.79 413.125 1400.08 351.051 1343.63 302.564C1320.58 282.948 1295.93 266.054 1270.06 251.712C1159.44 190.395 1025.83 175.526 898.458 184.542Z" fill="url(#paint1_linear_4758_75433)"/>
            <g filter="url(#filter1_f_4758_75433)">
                <ellipse cx="1189.73" cy="616.219" rx="270" ry="299.25" transform="rotate(29 1189.73 616.219)" fill="#FFAF65"/>
            </g>
            <g filter="url(#filter2_f_4758_75433)">
                <path d="M645.285 367.051L821.138 308.615L879.142 293.994L1048.53 387.885L1072.38 401.11C1089.53 418.931 1126.75 460.559 1138.44 484.496C1153.04 514.418 1121.02 549.679 1121.05 577.759C1121.07 605.839 1086.41 645.87 1068.16 673.172C1049.91 700.473 1019.21 733.349 991.671 749.268C964.135 765.186 892.851 747.501 875.375 756.523C861.394 763.741 853.645 750.715 851.518 743.299L751.319 687.758C734.714 685.83 698.166 680.123 684.806 672.717C668.106 663.46 645.859 669.838 620.162 671.185C599.605 672.263 554.033 685.46 533.817 691.924L450.346 673.72L369.232 628.758L368.629 556.704L393.751 511.382L464.431 457.014L537.497 403.968L645.285 367.051Z" fill="url(#paint2_linear_4758_75433)"/>
            </g>
            <g filter="url(#filter3_f_4758_75433)">
                <path d="M899.773 203.245L899.764 203.246C868.268 205.445 837.044 209.23 806.657 214.091C791.327 216.544 775.965 219.133 760.699 221.939L760.668 221.945L760.637 221.951C720.757 229.143 680.965 237.469 641.527 247.267L641.518 247.269L641.508 247.271C585.733 261.066 498.069 288.156 412.012 319.485C325.597 350.944 242.558 386.052 195.09 415.623L195.087 415.624C183.887 422.599 172.933 429.801 162.074 437.334C140.471 452.322 120.465 468.23 105.347 486.857C99.6014 493.995 94.6047 501.416 90.5914 509.239C82.6424 524.771 79.386 539.023 79.4501 552.186L79.4502 552.198L79.4502 552.209C79.4857 561.994 81.2757 571.411 84.6586 580.571L84.6743 580.614L84.6898 580.657C97.8581 616.854 128.736 655.177 168.838 679.154C207.681 702.373 250.854 713.417 285.256 721.983L285.263 721.985C291.009 723.418 298.249 724.452 306.427 725.393C308.941 725.682 311.62 725.969 314.344 726.262C319.867 726.854 325.572 727.465 330.449 728.152L330.459 728.153L330.469 728.155C373.968 734.323 417.568 734.009 462.7 733.296C465.212 733.256 467.729 733.215 470.251 733.174C512.617 732.484 556.412 731.772 600.584 736.654L600.591 736.655C709.359 748.724 810.104 798.954 890.628 870.442C894.727 874.081 898.779 877.7 902.797 881.287C955.496 928.349 1002.17 970.029 1068.22 980.238C1068.23 980.238 1068.23 980.239 1068.23 980.239L1065.37 998.769C1071.76 999.748 1078.02 1000.27 1084.31 1000.24L899.773 203.245ZM899.773 203.245L899.782 203.245C1025.15 194.371 1154.7 209.202 1260.97 268.111C1285.78 281.866 1309.39 298.047 1331.44 316.814C1384.72 362.583 1418.51 421.197 1435.06 485.421C1443.54 518.353 1437.58 552.47 1419.31 595.621C1404.18 631.352 1381.58 671.191 1353.99 719.826C1347.88 730.597 1341.52 741.8 1334.95 753.485L1334.95 753.491L1334.94 753.497C1320.42 779.362 1298.32 815.529 1270.76 851.38L1270.75 851.392L1270.74 851.404C1245.06 884.921 1214.42 919.673 1183.78 944.671L899.773 203.245Z" stroke="url(#paint3_linear_4758_75433)" stroke-width="37.5"/>
            </g>
        </g>
    </g>
    <defs>
        <filter id="filter0_f_4758_75433" x="0.699219" y="122.123" width="1516.91" height="938.123" filterUnits="userSpaceOnUse" color-interpolation-filters="sRGB">
            <feFlood flood-opacity="0" result="BackgroundImageFix"/>
            <feBlend mode="normal" in="SourceGraphic" in2="BackgroundImageFix" result="shape"/>
            <feGaussianBlur stdDeviation="30" result="effect1_foregroundBlur_4758_75433"/>
        </filter>
        <filter id="filter1_f_4758_75433" x="687.539" y="98.5155" width="1004.39" height="1035.4" filterUnits="userSpaceOnUse" color-interpolation-filters="sRGB">
            <feFlood flood-opacity="0" result="BackgroundImageFix"/>
            <feBlend mode="normal" in="SourceGraphic" in2="BackgroundImageFix" result="shape"/>
            <feGaussianBlur stdDeviation="112.5" result="effect1_foregroundBlur_4758_75433"/>
        </filter>
        <filter id="filter2_f_4758_75433" x="256.129" y="181.494" width="998.621" height="689.639" filterUnits="userSpaceOnUse" color-interpolation-filters="sRGB">
            <feFlood flood-opacity="0" result="BackgroundImageFix"/>
            <feBlend mode="normal" in="SourceGraphic" in2="BackgroundImageFix" result="shape"/>
            <feGaussianBlur stdDeviation="56.25" result="effect1_foregroundBlur_4758_75433"/>
        </filter>
        <filter id="filter3_f_4758_75433" x="0.699188" y="122.123" width="1516.91" height="938.123" filterUnits="userSpaceOnUse" color-interpolation-filters="sRGB">
            <feFlood flood-opacity="0" result="BackgroundImageFix"/>
            <feBlend mode="normal" in="SourceGraphic" in2="BackgroundImageFix" result="shape"/>
            <feGaussianBlur stdDeviation="30" result="effect1_foregroundBlur_4758_75433"/>
        </filter>
        <linearGradient id="paint0_linear_4758_75433" x1="60.2112" y1="580.945" x2="1349.65" y2="637.119" gradientUnits="userSpaceOnUse">
            <stop stop-color="#5E56CC"/>
            <stop offset="0.432292" stop-color="#E06FAF"/>
            <stop offset="1" stop-color="#F8E6DB" stop-opacity="0"/>
        </linearGradient>
        <linearGradient id="paint1_linear_4758_75433" x1="60.2112" y1="580.945" x2="1349.65" y2="637.119" gradientUnits="userSpaceOnUse">
            <stop stop-color="#5E56CC"/>
            <stop offset="0.432292" stop-color="#E06FAF"/>
            <stop offset="1" stop-color="#F8E6DB" stop-opacity="0"/>
        </linearGradient>
        <linearGradient id="paint2_linear_4758_75433" x1="356.729" y1="578.172" x2="1041.78" y2="474.479" gradientUnits="userSpaceOnUse">
            <stop stop-color="#DB4EBB"/>
            <stop offset="1" stop-color="#FF8D8D"/>
        </linearGradient>
        <linearGradient id="paint3_linear_4758_75433" x1="59.3268" y1="570.164" x2="978.18" y2="688.465" gradientUnits="userSpaceOnUse">
            <stop stop-color="#5B56CC"/>
            <stop offset="1" stop-color="#5B56CC" stop-opacity="0"/>
        </linearGradient>
    </defs>
</svg>
