<svg width="1281" height="769" viewBox="0 0 1281 769" fill="none" xmlns="http://www.w3.org/2000/svg">
<g opacity="0.08">
<path fill-rule="evenodd" clip-rule="evenodd" d="M1173.83 0C1174.11 0 1174.33 0.223858 1174.33 0.5V768.499C1174.33 768.775 1174.11 768.999 1173.83 768.999C1173.55 768.999 1173.33 768.775 1173.33 768.499V0.5C1173.33 0.223858 1173.55 0 1173.83 0Z" fill="url(#paint0_radial_5114_76045)"/>
<path fill-rule="evenodd" clip-rule="evenodd" d="M1067.17 0C1067.44 0 1067.67 0.223858 1067.67 0.5V768.499C1067.67 768.775 1067.44 768.999 1067.17 768.999C1066.89 768.999 1066.67 768.775 1066.67 768.499V0.5C1066.67 0.223858 1066.89 0 1067.17 0Z" fill="url(#paint1_radial_5114_76045)"/>
<path fill-rule="evenodd" clip-rule="evenodd" d="M960.499 0C960.775 0 960.999 0.223858 960.999 0.5V768.499C960.999 768.775 960.775 768.999 960.499 768.999C960.223 768.999 959.999 768.775 959.999 768.499V0.5C959.999 0.223858 960.223 0 960.499 0Z" fill="url(#paint2_radial_5114_76045)"/>
<path fill-rule="evenodd" clip-rule="evenodd" d="M853.827 0C854.103 0 854.327 0.223858 854.327 0.5V768.499C854.327 768.775 854.103 768.999 853.827 768.999C853.551 768.999 853.327 768.775 853.327 768.499V0.5C853.327 0.223858 853.551 0 853.827 0Z" fill="url(#paint3_radial_5114_76045)"/>
<path fill-rule="evenodd" clip-rule="evenodd" d="M747.167 0C747.443 0 747.667 0.223858 747.667 0.5V768.499C747.667 768.775 747.443 768.999 747.167 768.999C746.891 768.999 746.667 768.775 746.667 768.499V0.5C746.667 0.223858 746.891 0 747.167 0Z" fill="url(#paint4_radial_5114_76045)"/>
<path fill-rule="evenodd" clip-rule="evenodd" d="M640.499 0C640.775 0 640.999 0.223858 640.999 0.5V768.499C640.999 768.775 640.775 768.999 640.499 768.999C640.223 768.999 639.999 768.775 639.999 768.499V0.5C639.999 0.223858 640.223 0 640.499 0Z" fill="url(#paint5_radial_5114_76045)"/>
<path fill-rule="evenodd" clip-rule="evenodd" d="M533.835 0C534.111 0 534.335 0.223858 534.335 0.5V768.499C534.335 768.775 534.111 768.999 533.835 768.999C533.559 768.999 533.335 768.775 533.335 768.499V0.5C533.335 0.223858 533.559 0 533.835 0Z" fill="url(#paint6_radial_5114_76045)"/>
<path fill-rule="evenodd" clip-rule="evenodd" d="M427.167 0C427.443 0 427.667 0.223858 427.667 0.5V768.499C427.667 768.775 427.443 768.999 427.167 768.999C426.891 768.999 426.667 768.775 426.667 768.499V0.5C426.667 0.223858 426.891 0 427.167 0Z" fill="url(#paint7_radial_5114_76045)"/>
<path fill-rule="evenodd" clip-rule="evenodd" d="M320.503 0C320.779 0 321.003 0.223858 321.003 0.5V768.499C321.003 768.775 320.779 768.999 320.503 768.999C320.227 768.999 320.003 768.775 320.003 768.499V0.5C320.003 0.223858 320.227 0 320.503 0Z" fill="url(#paint8_radial_5114_76045)"/>
<path fill-rule="evenodd" clip-rule="evenodd" d="M213.835 0C214.111 0 214.335 0.223858 214.335 0.5V768.499C214.335 768.775 214.111 768.999 213.835 768.999C213.559 768.999 213.335 768.775 213.335 768.499V0.5C213.335 0.223858 213.559 0 213.835 0Z" fill="url(#paint9_radial_5114_76045)"/>
<path fill-rule="evenodd" clip-rule="evenodd" d="M107.171 0C107.447 0 107.671 0.223858 107.671 0.5V768.499C107.671 768.775 107.447 768.999 107.171 768.999C106.895 768.999 106.671 768.775 106.671 768.499V0.5C106.671 0.223858 106.895 0 107.171 0Z" fill="url(#paint10_radial_5114_76045)"/>
<path fill-rule="evenodd" clip-rule="evenodd" d="M0 64.5009C0 64.2247 0.223858 64.0009 0.5 64.0009H1280.5C1280.78 64.0009 1281 64.2247 1281 64.5009C1281 64.777 1280.78 65.0009 1280.5 65.0009H0.5C0.223858 65.0009 0 64.777 0 64.5009Z" fill="url(#paint11_radial_5114_76045)"/>
<path fill-rule="evenodd" clip-rule="evenodd" d="M0 128.497C0 128.221 0.223858 127.997 0.5 127.997H1280.5C1280.78 127.997 1281 128.221 1281 128.497C1281 128.773 1280.78 128.997 1280.5 128.997H0.5C0.223858 128.997 0 128.773 0 128.497Z" fill="url(#paint12_radial_5114_76045)"/>
<path fill-rule="evenodd" clip-rule="evenodd" d="M0 192.497C0 192.221 0.223858 191.997 0.5 191.997H1280.5C1280.78 191.997 1281 192.221 1281 192.497C1281 192.773 1280.78 192.997 1280.5 192.997H0.5C0.223858 192.997 0 192.773 0 192.497Z" fill="url(#paint13_radial_5114_76045)"/>
<path fill-rule="evenodd" clip-rule="evenodd" d="M0 256.497C0 256.221 0.223858 255.997 0.5 255.997H1280.5C1280.78 255.997 1281 256.221 1281 256.497C1281 256.773 1280.78 256.997 1280.5 256.997H0.5C0.223858 256.997 0 256.773 0 256.497Z" fill="url(#paint14_radial_5114_76045)"/>
<path fill-rule="evenodd" clip-rule="evenodd" d="M0 320.501C0 320.225 0.223858 320.001 0.5 320.001H1280.5C1280.78 320.001 1281 320.225 1281 320.501C1281 320.777 1280.78 321.001 1280.5 321.001H0.5C0.223858 321.001 0 320.777 0 320.501Z" fill="url(#paint15_radial_5114_76045)"/>
<path fill-rule="evenodd" clip-rule="evenodd" d="M0 384.497C0 384.221 0.223858 383.997 0.5 383.997H1280.5C1280.78 383.997 1281 384.221 1281 384.497C1281 384.773 1280.78 384.997 1280.5 384.997H0.5C0.223858 384.997 0 384.773 0 384.497Z" fill="url(#paint16_radial_5114_76045)"/>
<path fill-rule="evenodd" clip-rule="evenodd" d="M0 448.497C0 448.221 0.223858 447.997 0.5 447.997H1280.5C1280.78 447.997 1281 448.221 1281 448.497C1281 448.773 1280.78 448.997 1280.5 448.997H0.5C0.223858 448.997 0 448.773 0 448.497Z" fill="url(#paint17_radial_5114_76045)"/>
<path fill-rule="evenodd" clip-rule="evenodd" d="M0 512.497C0 512.221 0.223858 511.997 0.5 511.997H1280.5C1280.78 511.997 1281 512.221 1281 512.497C1281 512.773 1280.78 512.997 1280.5 512.997H0.5C0.223858 512.997 0 512.773 0 512.497Z" fill="url(#paint18_radial_5114_76045)"/>
<path fill-rule="evenodd" clip-rule="evenodd" d="M0 576.497C0 576.221 0.223858 575.997 0.5 575.997H1280.5C1280.78 575.997 1281 576.221 1281 576.497C1281 576.773 1280.78 576.997 1280.5 576.997H0.5C0.223858 576.997 0 576.773 0 576.497Z" fill="url(#paint19_radial_5114_76045)"/>
<path fill-rule="evenodd" clip-rule="evenodd" d="M0 640.501C0 640.225 0.223858 640.001 0.5 640.001H1280.5C1280.78 640.001 1281 640.225 1281 640.501C1281 640.777 1280.78 641.001 1280.5 641.001H0.5C0.223858 641.001 0 640.777 0 640.501Z" fill="url(#paint20_radial_5114_76045)"/>
<path fill-rule="evenodd" clip-rule="evenodd" d="M0 704.497C0 704.221 0.223858 703.997 0.5 703.997H1280.5C1280.78 703.997 1281 704.221 1281 704.497C1281 704.773 1280.78 704.997 1280.5 704.997H0.5C0.223858 704.997 0 704.773 0 704.497Z" fill="url(#paint21_radial_5114_76045)"/>
</g>
<defs>
<radialGradient id="paint0_radial_5114_76045" cx="0" cy="0" r="1" gradientUnits="userSpaceOnUse" gradientTransform="translate(640.5 384.504) rotate(90) scale(384 639.668)">
<stop stop-color="#121417"/>
<stop offset="1" stop-color="#121417" stop-opacity="0"/>
</radialGradient>
<radialGradient id="paint1_radial_5114_76045" cx="0" cy="0" r="1" gradientUnits="userSpaceOnUse" gradientTransform="translate(640.5 384.504) rotate(90) scale(384 639.668)">
<stop stop-color="#121417"/>
<stop offset="1" stop-color="#121417" stop-opacity="0"/>
</radialGradient>
<radialGradient id="paint2_radial_5114_76045" cx="0" cy="0" r="1" gradientUnits="userSpaceOnUse" gradientTransform="translate(640.5 384.504) rotate(90) scale(384 639.668)">
<stop stop-color="#121417"/>
<stop offset="1" stop-color="#121417" stop-opacity="0"/>
</radialGradient>
<radialGradient id="paint3_radial_5114_76045" cx="0" cy="0" r="1" gradientUnits="userSpaceOnUse" gradientTransform="translate(640.5 384.504) rotate(90) scale(384 639.668)">
<stop stop-color="#121417"/>
<stop offset="1" stop-color="#121417" stop-opacity="0"/>
</radialGradient>
<radialGradient id="paint4_radial_5114_76045" cx="0" cy="0" r="1" gradientUnits="userSpaceOnUse" gradientTransform="translate(640.5 384.504) rotate(90) scale(384 639.668)">
<stop stop-color="#121417"/>
<stop offset="1" stop-color="#121417" stop-opacity="0"/>
</radialGradient>
<radialGradient id="paint5_radial_5114_76045" cx="0" cy="0" r="1" gradientUnits="userSpaceOnUse" gradientTransform="translate(640.5 384.504) rotate(90) scale(384 639.668)">
<stop stop-color="#121417"/>
<stop offset="1" stop-color="#121417" stop-opacity="0"/>
</radialGradient>
<radialGradient id="paint6_radial_5114_76045" cx="0" cy="0" r="1" gradientUnits="userSpaceOnUse" gradientTransform="translate(640.5 384.504) rotate(90) scale(384 639.668)">
<stop stop-color="#121417"/>
<stop offset="1" stop-color="#121417" stop-opacity="0"/>
</radialGradient>
<radialGradient id="paint7_radial_5114_76045" cx="0" cy="0" r="1" gradientUnits="userSpaceOnUse" gradientTransform="translate(640.5 384.504) rotate(90) scale(384 639.668)">
<stop stop-color="#121417"/>
<stop offset="1" stop-color="#121417" stop-opacity="0"/>
</radialGradient>
<radialGradient id="paint8_radial_5114_76045" cx="0" cy="0" r="1" gradientUnits="userSpaceOnUse" gradientTransform="translate(640.5 384.504) rotate(90) scale(384 639.668)">
<stop stop-color="#121417"/>
<stop offset="1" stop-color="#121417" stop-opacity="0"/>
</radialGradient>
<radialGradient id="paint9_radial_5114_76045" cx="0" cy="0" r="1" gradientUnits="userSpaceOnUse" gradientTransform="translate(640.5 384.504) rotate(90) scale(384 639.668)">
<stop stop-color="#121417"/>
<stop offset="1" stop-color="#121417" stop-opacity="0"/>
</radialGradient>
<radialGradient id="paint10_radial_5114_76045" cx="0" cy="0" r="1" gradientUnits="userSpaceOnUse" gradientTransform="translate(640.5 384.504) rotate(90) scale(384 639.668)">
<stop stop-color="#121417"/>
<stop offset="1" stop-color="#121417" stop-opacity="0"/>
</radialGradient>
<radialGradient id="paint11_radial_5114_76045" cx="0" cy="0" r="1" gradientUnits="userSpaceOnUse" gradientTransform="translate(640.5 384.504) rotate(90) scale(384 639.668)">
<stop stop-color="#121417"/>
<stop offset="1" stop-color="#121417" stop-opacity="0"/>
</radialGradient>
<radialGradient id="paint12_radial_5114_76045" cx="0" cy="0" r="1" gradientUnits="userSpaceOnUse" gradientTransform="translate(640.5 384.504) rotate(90) scale(384 639.668)">
<stop stop-color="#121417"/>
<stop offset="1" stop-color="#121417" stop-opacity="0"/>
</radialGradient>
<radialGradient id="paint13_radial_5114_76045" cx="0" cy="0" r="1" gradientUnits="userSpaceOnUse" gradientTransform="translate(640.5 384.504) rotate(90) scale(384 639.668)">
<stop stop-color="#121417"/>
<stop offset="1" stop-color="#121417" stop-opacity="0"/>
</radialGradient>
<radialGradient id="paint14_radial_5114_76045" cx="0" cy="0" r="1" gradientUnits="userSpaceOnUse" gradientTransform="translate(640.5 384.504) rotate(90) scale(384 639.668)">
<stop stop-color="#121417"/>
<stop offset="1" stop-color="#121417" stop-opacity="0"/>
</radialGradient>
<radialGradient id="paint15_radial_5114_76045" cx="0" cy="0" r="1" gradientUnits="userSpaceOnUse" gradientTransform="translate(640.5 384.504) rotate(90) scale(384 639.668)">
<stop stop-color="#121417"/>
<stop offset="1" stop-color="#121417" stop-opacity="0"/>
</radialGradient>
<radialGradient id="paint16_radial_5114_76045" cx="0" cy="0" r="1" gradientUnits="userSpaceOnUse" gradientTransform="translate(640.5 384.504) rotate(90) scale(384 639.668)">
<stop stop-color="#121417"/>
<stop offset="1" stop-color="#121417" stop-opacity="0"/>
</radialGradient>
<radialGradient id="paint17_radial_5114_76045" cx="0" cy="0" r="1" gradientUnits="userSpaceOnUse" gradientTransform="translate(640.5 384.504) rotate(90) scale(384 639.668)">
<stop stop-color="#121417"/>
<stop offset="1" stop-color="#121417" stop-opacity="0"/>
</radialGradient>
<radialGradient id="paint18_radial_5114_76045" cx="0" cy="0" r="1" gradientUnits="userSpaceOnUse" gradientTransform="translate(640.5 384.504) rotate(90) scale(384 639.668)">
<stop stop-color="#121417"/>
<stop offset="1" stop-color="#121417" stop-opacity="0"/>
</radialGradient>
<radialGradient id="paint19_radial_5114_76045" cx="0" cy="0" r="1" gradientUnits="userSpaceOnUse" gradientTransform="translate(640.5 384.504) rotate(90) scale(384 639.668)">
<stop stop-color="#121417"/>
<stop offset="1" stop-color="#121417" stop-opacity="0"/>
</radialGradient>
<radialGradient id="paint20_radial_5114_76045" cx="0" cy="0" r="1" gradientUnits="userSpaceOnUse" gradientTransform="translate(640.5 384.504) rotate(90) scale(384 639.668)">
<stop stop-color="#121417"/>
<stop offset="1" stop-color="#121417" stop-opacity="0"/>
</radialGradient>
<radialGradient id="paint21_radial_5114_76045" cx="0" cy="0" r="1" gradientUnits="userSpaceOnUse" gradientTransform="translate(640.5 384.504) rotate(90) scale(384 639.668)">
<stop stop-color="#121417"/>
<stop offset="1" stop-color="#121417" stop-opacity="0"/>
</radialGradient>
</defs>
</svg>
